<?xml version="1.0" encoding="utf-8"?>
<!-- Generator: Adobe Illustrator 18.1.0, SVG Export Plug-In . SVG Version: 6.00 Build 0)  -->
<svg version="1.1" xmlns="http://www.w3.org/2000/svg" xmlns:xlink="http://www.w3.org/1999/xlink" x="0px" y="0px"
	 viewBox="0 0 52.402 59.313" enable-background="new 0 0 52.402 59.313" xml:space="preserve">
<g>
	<defs>
		<rect id="SVGID_1_" width="52.402" height="59.313"/>
	</defs>
	<clipPath id="SVGID_2_">
		<use xlink:href="#SVGID_1_"  overflow="visible"/>
	</clipPath>
	<path clip-path="url(#SVGID_2_)" d="M51.776,0H26.295H0.626H0v0.624v34.715v0.008l0.001,0.008c0.004,0.173,0.146,4.283,3.491,9.314
		c1.95,2.932,4.593,5.574,7.857,7.849c4.058,2.829,9.092,5.099,14.963,6.747l0.168,0.048l0.169-0.048
		c5.872-1.648,10.879-3.919,14.878-6.749c3.22-2.278,5.8-4.922,7.669-7.858c3.206-5.036,3.206-9.152,3.204-9.325V0.624V0H51.776z"/>
	<path clip-path="url(#SVGID_2_)" fill="#FFFFFF" d="M26.474,57.106l-0.142-0.039C13.986,53.601,8.016,47.804,5.183,43.55
		c-3.101-4.652-3.237-8.449-3.242-8.609V2.203H50.46v32.724c0.001,0.155,0.001,3.956-2.964,8.614
		c-2.709,4.257-8.531,10.059-20.882,13.526L26.474,57.106z M2.981,3.243v31.684c0.001,0.022,0.147,3.695,3.109,8.108
		c2.731,4.069,8.482,9.619,20.384,12.99c11.893-3.369,17.497-8.914,20.106-12.98c2.826-4.409,2.839-8.077,2.839-8.114V3.243H26.275
		H2.981z"/>
	<path clip-path="url(#SVGID_2_)" fill="#FFFFFF" d="M47.17,22.715h-0.107l-0.744,2.636c-0.087,0.24-0.244,0.422-0.484,0.56
		c-0.235,0.134-0.482,0.163-0.696,0.103c-0.238-0.085-0.411-0.229-0.53-0.441c-0.117-0.209-0.141-0.426-0.074-0.66l2.316-7.98
		c0.228-0.762,0.232-1.451,0.012-2.047c-0.22-0.592-0.578-1.095-1.064-1.495c-0.482-0.398-1.062-0.704-1.723-0.913
		c-0.659-0.207-1.337-0.311-2.013-0.311c-1.351,0-2.426,0.235-3.194,0.699c-0.773,0.468-1.328,1.291-1.65,2.446l-2.372,8.289
		c-0.003,0.01-0.005,0.019-0.007,0.034l-0.527,1.833c-0.085,0.239-0.23,0.412-0.441,0.53c-0.208,0.117-0.438,0.138-0.653,0.077
		c-0.24-0.085-0.418-0.23-0.547-0.444c-0.123-0.206-0.143-0.42-0.059-0.657l2.681-9.301c0.018-0.086,0.044-0.174,0.083-0.274
		c0.019-0.075,0.038-0.155,0.057-0.24c0.02-0.091,0.03-0.179,0.03-0.26c0-0.367-0.078-0.715-0.233-1.036
		c-0.154-0.317-0.369-0.604-0.637-0.854c-0.27-0.249-0.59-0.449-0.954-0.592c-0.364-0.145-0.762-0.217-1.182-0.217
		c-0.836,0-1.518,0.175-2.026,0.52c-0.454,0.309-0.793,0.786-1.011,1.424c-0.164-0.48-0.471-0.905-0.917-1.265
		c-0.556-0.45-1.235-0.679-2.018-0.679c-0.837,0-1.51,0.18-2,0.536c-0.432,0.314-0.768,0.792-0.999,1.426
		c-0.154-0.492-0.46-0.923-0.912-1.284c-0.566-0.449-1.249-0.678-2.033-0.678c-1.395,0-2.356,0.537-2.859,1.6
		c-0.035,0.087-0.075,0.172-0.12,0.253c-0.01,0.019-0.021,0.04-0.031,0.062c-0.167-0.469-0.469-0.884-0.903-1.236
		c-0.558-0.45-1.237-0.679-2.02-0.679c-0.836,0-1.51,0.18-2,0.536c-0.434,0.314-0.768,0.793-0.998,1.427
		c-0.155-0.493-0.461-0.924-0.913-1.285c-0.566-0.449-1.25-0.678-2.032-0.678c-1.396,0-2.357,0.537-2.86,1.6
		c-0.035,0.087-0.076,0.173-0.12,0.253c-0.052,0.094-0.095,0.216-0.135,0.372l-0.594,2.139l0.434,0.007l0.557-2.009
		c0.033-0.135,0.079-0.239,0.135-0.31c0.06-0.078,0.124-0.151,0.192-0.22c0.131-0.08,0.269-0.13,0.407-0.146
		C6.825,13.87,6.96,13.878,7.07,13.91c0.574,0.185,0.753,0.609,0.547,1.295L5.552,22.32c-0.152,0.512-0.21,1.023-0.172,1.517
		c0.038,0.492,0.144,0.958,0.314,1.384c0.173,0.43,0.42,0.809,0.735,1.124c0.319,0.318,0.704,0.547,1.137,0.678
		c0.099,0.041,0.205,0.07,0.314,0.09c0.114,0.02,0.225,0.02,0.331-0.001L8.273,27.1l3.644-12.558
		c0.103-0.307,0.265-0.501,0.498-0.593c0.233-0.091,0.424-0.108,0.599-0.04c0.555,0.186,0.725,0.61,0.518,1.296l-2.064,7.088
		c-0.152,0.512-0.21,1.026-0.171,1.53c0.036,0.501,0.147,0.972,0.328,1.4c0.181,0.429,0.437,0.807,0.763,1.123
		c0.327,0.317,0.717,0.546,1.156,0.68c0.177,0.059,0.367,0.088,0.563,0.088h0.078L17.78,14.73c0.005-0.019,0.008-0.035,0.01-0.052
		l0.035-0.116c0.033-0.134,0.078-0.238,0.134-0.31c0.06-0.077,0.125-0.151,0.193-0.22c0.132-0.08,0.269-0.13,0.407-0.146
		c0.144-0.016,0.278-0.008,0.389,0.024c0.573,0.185,0.751,0.609,0.546,1.295l-2.065,7.115c-0.152,0.512-0.21,1.022-0.172,1.517
		c0.038,0.492,0.144,0.958,0.314,1.384c0.173,0.43,0.42,0.808,0.735,1.124c0.319,0.318,0.705,0.547,1.137,0.678
		c0.1,0.04,0.205,0.07,0.314,0.09c0.057,0.01,0.113,0.015,0.167,0.015c0.056,0,0.111-0.005,0.164-0.016L20.15,27.1l3.644-12.558
		c0.102-0.307,0.265-0.501,0.498-0.593c0.234-0.091,0.425-0.108,0.599-0.04c0.555,0.186,0.725,0.61,0.519,1.296l-2.065,7.088
		c-0.152,0.512-0.21,1.026-0.171,1.53c0.036,0.501,0.147,0.972,0.328,1.4c0.182,0.43,0.438,0.808,0.763,1.123
		c0.328,0.317,0.717,0.546,1.156,0.68c0.177,0.059,0.367,0.088,0.563,0.088h0.078l3.593-12.383c0.087-0.309,0.243-0.548,0.465-0.71
		c0.216-0.159,0.43-0.204,0.664-0.138c0.303,0.085,0.49,0.233,0.571,0.452c0.085,0.228,0.075,0.521-0.03,0.87l-2.427,8.456
		c-0.098,0.35-0.108,0.701-0.03,1.042c0.076,0.335,0.213,0.656,0.405,0.955c0.19,0.296,0.443,0.564,0.75,0.794
		c0.306,0.23,0.665,0.404,1.066,0.518c0.38,0.115,0.766,0.162,1.15,0.144c0.382-0.019,0.74-0.091,1.065-0.216
		c0.328-0.125,0.612-0.302,0.844-0.524c0.234-0.224,0.402-0.487,0.503-0.786l0.208-0.724c0.074,0.257,0.186,0.502,0.336,0.732
		c0.192,0.298,0.444,0.565,0.75,0.795c0.306,0.229,0.665,0.404,1.064,0.518c0.724,0.228,1.53,0.22,2.195,0.029
		c0.339-0.097,0.635-0.26,0.879-0.484c0.247-0.227,0.412-0.513,0.49-0.844l0.21-0.751c0.102,0.382,0.299,0.74,0.588,1.071
		c0.403,0.459,0.936,0.789,1.583,0.979c0.382,0.115,0.774,0.168,1.163,0.159c0.389-0.01,0.761-0.073,1.105-0.187
		c0.347-0.117,0.65-0.287,0.901-0.51c0.255-0.226,0.434-0.51,0.533-0.844l0.784-2.759L47.17,22.715z M40.203,25.53
		c-0.067,0.193-0.195,0.335-0.39,0.433c-0.202,0.1-0.429,0.124-0.654,0.076c-0.266-0.065-0.434-0.2-0.515-0.411
		c-0.085-0.219-0.084-0.488,0.003-0.798l3.012-10.401c0.084-0.221,0.225-0.386,0.429-0.505c0.115-0.067,0.233-0.1,0.358-0.1
		c0.088,0,0.184,0.017,0.286,0.053c0.236,0.068,0.408,0.199,0.524,0.399c0.117,0.2,0.141,0.411,0.075,0.644
		c-0.574,1.958-1.099,3.733-1.563,5.274c-0.205,0.67-0.4,1.321-0.586,1.955c-0.186,0.632-0.349,1.195-0.489,1.689
		c-0.139,0.492-0.254,0.891-0.349,1.197C40.238,25.389,40.211,25.492,40.203,25.53"/>
	<rect x="6.042" y="32.937" clip-path="url(#SVGID_2_)" fill="#FFFFFF" width="40.318" height="0.624"/>
	<path clip-path="url(#SVGID_2_)" fill="#FFFFFF" d="M13.272,35.223c0.009-0.036,0.046-0.068,0.082-0.068h0.074
		c0.027,0,0.068,0.022,0.078,0.05l0.957,2.341h0.018l0.953-2.341c0.009-0.028,0.046-0.05,0.078-0.05h0.073
		c0.037,0,0.074,0.032,0.082,0.068l0.564,3.078c0.014,0.064-0.018,0.105-0.083,0.105h-0.297c-0.042,0-0.078-0.031-0.087-0.064
		l-0.339-2.047h-0.014l-0.825,2.107c-0.009,0.027-0.036,0.051-0.078,0.051h-0.082c-0.037,0-0.068-0.024-0.078-0.051l-0.828-2.107
		h-0.019l-0.33,2.047c-0.004,0.033-0.045,0.064-0.082,0.064h-0.298c-0.064,0-0.096-0.041-0.087-0.105L13.272,35.223z"/>
	<path clip-path="url(#SVGID_2_)" fill="#FFFFFF" d="M16.86,35.288c0-0.046,0.041-0.087,0.087-0.087h0.307
		c0.051,0,0.087,0.041,0.087,0.087v1.892c0,0.457,0.293,0.815,0.76,0.815c0.472,0,0.77-0.353,0.77-0.807v-1.9
		c0-0.046,0.036-0.087,0.087-0.087h0.307c0.046,0,0.087,0.041,0.087,0.087v1.924c0,0.695-0.527,1.241-1.251,1.241
		c-0.719,0-1.241-0.546-1.241-1.241V35.288z"/>
	<path clip-path="url(#SVGID_2_)" fill="#FFFFFF" d="M20.197,35.288c0-0.046,0.037-0.087,0.087-0.087h0.302
		c0.046,0,0.087,0.041,0.087,0.087v2.693h1.242c0.05,0,0.087,0.041,0.087,0.088v0.251c0,0.046-0.037,0.087-0.087,0.087h-1.631
		c-0.05,0-0.087-0.041-0.087-0.087V35.288z"/>
	<path clip-path="url(#SVGID_2_)" fill="#FFFFFF" d="M22.729,35.631h-0.747c-0.05,0-0.087-0.041-0.087-0.087v-0.256
		c0-0.046,0.037-0.087,0.087-0.087h1.97c0.05,0,0.087,0.041,0.087,0.087v0.256c0,0.046-0.037,0.087-0.087,0.087h-0.747v2.689
		c0,0.046-0.041,0.087-0.087,0.087h-0.302c-0.046,0-0.087-0.041-0.087-0.087V35.631z"/>
	<path clip-path="url(#SVGID_2_)" fill="#FFFFFF" d="M24.533,35.288c0-0.046,0.041-0.087,0.087-0.087h0.302
		c0.046,0,0.087,0.041,0.087,0.087v3.032c0,0.046-0.041,0.087-0.087,0.087H24.62c-0.046,0-0.087-0.041-0.087-0.087V35.288z"/>
	<path clip-path="url(#SVGID_2_)" fill="#FFFFFF" d="M26.245,35.223c0.009-0.036,0.046-0.068,0.082-0.068h0.074
		c0.027,0,0.068,0.022,0.078,0.05l0.957,2.341h0.019l0.952-2.341c0.009-0.028,0.045-0.05,0.078-0.05h0.073
		c0.037,0,0.074,0.032,0.082,0.068l0.564,3.078c0.014,0.064-0.018,0.105-0.083,0.105h-0.297c-0.042,0-0.078-0.031-0.088-0.064
		l-0.338-2.047h-0.014l-0.825,2.107c-0.009,0.027-0.036,0.051-0.078,0.051h-0.082c-0.037,0-0.068-0.024-0.077-0.051l-0.829-2.107
		h-0.019l-0.33,2.047c-0.004,0.033-0.045,0.064-0.082,0.064h-0.298c-0.064,0-0.096-0.041-0.087-0.105L26.245,35.223z"/>
	<path clip-path="url(#SVGID_2_)" fill="#FFFFFF" d="M29.875,35.288c0-0.046,0.036-0.087,0.087-0.087h1.832
		c0.05,0,0.087,0.041,0.087,0.087v0.257c0,0.045-0.037,0.086-0.087,0.086h-1.448v0.935h1.223c0.047,0,0.087,0.041,0.087,0.087v0.256
		c0,0.051-0.04,0.087-0.087,0.087h-1.223v0.985h1.448c0.05,0,0.087,0.041,0.087,0.088v0.251c0,0.046-0.037,0.087-0.087,0.087h-1.832
		c-0.051,0-0.087-0.041-0.087-0.087V35.288z"/>
	<path clip-path="url(#SVGID_2_)" fill="#FFFFFF" d="M32.571,35.288c0-0.046,0.037-0.087,0.083-0.087h1.053
		c0.884,0,1.608,0.719,1.608,1.599c0,0.888-0.724,1.607-1.608,1.607h-1.053c-0.046,0-0.083-0.041-0.083-0.087V35.288z
		 M33.643,37.972c0.673,0,1.164-0.495,1.164-1.172c0-0.674-0.491-1.164-1.164-1.164h-0.605v2.336H33.643z"/>
	<path clip-path="url(#SVGID_2_)" fill="#FFFFFF" d="M35.973,35.288c0-0.046,0.041-0.087,0.087-0.087h0.302
		c0.046,0,0.087,0.041,0.087,0.087v3.032c0,0.046-0.041,0.087-0.087,0.087H36.06c-0.046,0-0.087-0.041-0.087-0.087V35.288z"/>
	<path clip-path="url(#SVGID_2_)" fill="#FFFFFF" d="M36.906,38.288l1.406-3.082c0.015-0.028,0.056-0.05,0.079-0.05h0.045
		c0.023,0,0.064,0.022,0.078,0.05l1.397,3.082c0.028,0.06-0.01,0.119-0.078,0.119h-0.288c-0.055,0-0.087-0.027-0.106-0.068
		l-0.283-0.628h-1.499c-0.091,0.211-0.187,0.417-0.279,0.628c-0.014,0.032-0.05,0.068-0.105,0.068h-0.289
		C36.916,38.407,36.879,38.348,36.906,38.288 M38.981,37.317l-0.563-1.255h-0.023l-0.559,1.255H38.981z"/>
	<path clip-path="url(#SVGID_2_)" fill="#FFFFFF" d="M22.056,43.781l1.406-3.083c0.014-0.027,0.055-0.05,0.078-0.05h0.046
		c0.023,0,0.064,0.023,0.078,0.05l1.397,3.083c0.028,0.06-0.01,0.119-0.078,0.119h-0.288c-0.055,0-0.088-0.027-0.106-0.068
		l-0.284-0.628h-1.498c-0.092,0.211-0.187,0.417-0.279,0.628c-0.014,0.031-0.051,0.068-0.105,0.068h-0.289
		C22.065,43.9,22.029,43.841,22.056,43.781 M24.131,42.81l-0.563-1.255h-0.023l-0.559,1.255H24.131z"/>
	<path clip-path="url(#SVGID_2_)" fill="#FFFFFF" d="M25.517,40.78c0-0.045,0.036-0.086,0.087-0.086h1.246
		c0.549,0,0.998,0.435,0.998,0.98c0,0.422-0.279,0.77-0.677,0.93l0.626,1.163c0.033,0.059,0,0.133-0.077,0.133h-0.358
		c-0.036,0-0.063-0.024-0.072-0.041l-0.61-1.214h-0.692v1.167c0,0.047-0.041,0.088-0.086,0.088h-0.298
		c-0.051,0-0.087-0.041-0.087-0.088V40.78z M26.813,42.251c0.298,0,0.559-0.252,0.559-0.569c0-0.297-0.261-0.544-0.559-0.544h-0.815
		v1.113H26.813z"/>
	<path clip-path="url(#SVGID_2_)" fill="#FFFFFF" d="M29.001,41.125h-0.747c-0.05,0-0.087-0.042-0.087-0.087v-0.257
		c0-0.046,0.037-0.087,0.087-0.087h1.97c0.05,0,0.087,0.041,0.087,0.087v0.257c0,0.045-0.037,0.087-0.087,0.087h-0.747v2.688
		c0,0.046-0.041,0.088-0.087,0.088h-0.302c-0.046,0-0.087-0.042-0.087-0.088V41.125z"/>
</g>
<g>
</g>
<g>
</g>
<g>
</g>
<g>
</g>
<g>
</g>
<g>
</g>
</svg>
