<?xml version="1.0" encoding="utf-8"?>
<!-- Generator: Adobe Illustrator 18.1.0, SVG Export Plug-In . SVG Version: 6.00 Build 0)  -->
<svg version="1.1" xmlns:svg="http://www.w3.org/2000/svg"
	 xmlns="http://www.w3.org/2000/svg" xmlns:xlink="http://www.w3.org/1999/xlink" x="0px" y="0px" viewBox="206 544 1000 276.3"
	 enable-background="new 206 544 1000 276.3" xml:space="preserve">
<path fill="#FFFFFF" d="M1192.4,750.8c-0.2-4.7-3.8-6.8-8.1-6.8c-3.4,0-7.3,1.3-7.3,5.4c0,3.4,3.9,4.6,6.5,5.2l5.1,1.1
	c4.3,0.7,8.8,3.2,8.8,8.6c0,6.8-6.7,9.3-12.5,9.3c-7.2,0-12.2-3.4-12.8-11h3.8c0.3,5.1,4.1,7.8,9.2,7.8c3.6,0,8.5-1.6,8.5-5.9
	c0-3.6-3.4-4.8-6.8-5.7l-4.9-1.1c-4.9-1.3-8.7-3-8.7-8.3c0-6.3,6.2-8.7,11.7-8.7c6.2,0,11.2,3.3,11.4,10H1192.4 M1164.3,755.1
	c-0.2-5.7-3.7-11.1-9.9-11.1c-6.2,0-9.6,5.4-10.2,11.1H1164.3z M1144.2,758.3c0,5.6,3,12.2,10.2,12.2c5.5,0,8.6-3.2,9.8-8h3.8
	c-1.6,7.1-5.7,11.1-13.6,11.1c-9.9,0-14-7.6-14-16.4c0-8.2,4.2-16.5,14-16.5c10,0,14,8.7,13.7,17.5H1144.2 M1132.4,751.5
	c-1-4.6-3.9-7.5-8.8-7.5c-7.3,0-10.9,6.6-10.9,13.3c0,6.6,3.6,13.3,10.9,13.3c4.7,0,8.6-3.7,9-8.9h3.8c-1,7.5-5.9,12.1-12.8,12.1
	c-9.5,0-14.7-7.5-14.7-16.4s5.2-16.5,14.7-16.5c6.6,0,11.8,3.6,12.6,10.7H1132.4 M1078.3,741.7h3.8v5.4h0.2c1.4-3.7,5.5-6.3,9.9-6.3
	c8.7,0,11.4,4.6,11.4,12v20h-3.8v-19.4c0-5.4-1.8-9.4-7.9-9.4c-6,0-9.6,4.6-9.8,10.7v18.2h-3.8L1078.3,741.7 M1069.2,755.1
	c-0.2-5.7-3.7-11.1-9.9-11.1c-6.2,0-9.6,5.4-10.2,11.1H1069.2z M1049.1,758.3c0,5.6,3,12.2,10.2,12.2c5.6,0,8.6-3.2,9.8-8h3.8
	c-1.6,7.1-5.7,11.1-13.6,11.1c-9.9,0-14-7.6-14-16.4c0-8.2,4.2-16.5,14-16.5c10,0,14,8.7,13.7,17.5H1049.1 M1035.8,772.8v-31.1h3.8
	v31.1H1035.8z M1035.8,735.9v-6.1h3.8v6.1H1035.8z M1026.5,751.5c-1-4.6-3.8-7.5-8.8-7.5c-7.3,0-10.9,6.6-10.9,13.3
	c0,6.6,3.6,13.3,10.9,13.3c4.7,0,8.6-3.7,9-8.9h3.8c-1,7.5-5.9,12.1-12.8,12.1c-9.5,0-14.7-7.5-14.7-16.4c0-8.9,5.2-16.5,14.7-16.5
	c6.6,0,11.7,3.6,12.6,10.7H1026.5 M969.3,758.7c-0.2,8.9,6.2,11.6,14,11.6c4.5,0,11.4-2.5,11.4-8.7c0-4.9-4.9-6.8-8.9-7.8l-9.6-2.3
	c-5.1-1.3-9.7-3.7-9.7-10.4c0-4.2,2.7-12.1,14.8-12.1c8.5,0,16,4.6,15.9,13.4h-4.1c-0.3-6.6-5.7-9.9-11.8-9.9
	c-5.6,0-10.8,2.2-10.8,8.5c0,4,3,5.7,6.5,6.6l10.5,2.6c6.1,1.6,11.2,4.3,11.2,11.3c0,3-1.2,12.3-16.5,12.3
	c-10.2,0-17.7-4.6-17.2-15.1H969.3 M927.9,770.5c8.1,0,10.9-6.8,10.9-13.3c0-6.5-2.8-13.3-10.9-13.3c-7.2,0-10.2,6.8-10.2,13.3
	C917.7,763.7,920.7,770.5,927.9,770.5z M942.6,772.8h-3.5v-5.9H939c-1.6,4-6.6,6.8-11.1,6.8c-9.5,0-14-7.6-14-16.4s4.5-16.5,14-16.5
	c4.6,0,9.1,2.3,10.8,6.8h0.2v-17.8h3.8L942.6,772.8 M906.2,755.1c-0.2-5.7-3.7-11.1-9.9-11.1c-6.2,0-9.6,5.4-10.2,11.1H906.2
	L906.2,755.1z M886,758.3c0,5.6,3,12.2,10.2,12.2c5.6,0,8.6-3.2,9.8-8h3.8c-1.6,7.1-5.7,11.1-13.6,11.1c-9.9,0-14-7.6-14-16.4
	c0-8.2,4.2-16.5,14-16.5c10,0,14,8.7,13.7,17.5H886 M872.8,772.8v-31.1h3.8v31.1H872.8z M872.8,735.9v-6.1h3.8v6.1H872.8z
	 M861.9,729.8v43h3.8v-43H861.9L861.9,729.8z M842.2,744c-8.4,0-10.9,6.2-10.9,13.3c0,6.5,2.8,13.3,10.9,13.3
	c7.2,0,10.2-6.8,10.2-13.3S849.4,744,842.2,744z M827.5,741.7h3.5v5.9h0.2c1.8-4.2,6.1-6.8,11.1-6.8c9.5,0,14,7.7,14,16.5
	s-4.5,16.4-14,16.4c-4.6,0-9.2-2.3-10.8-6.8h-0.2v17.4h-3.8L827.5,741.7 M807.9,744c-8.4,0-10.9,6.2-10.9,13.3
	c0,6.5,2.8,13.3,10.9,13.3c7.2,0,10.2-6.8,10.2-13.3C818.1,750.8,815.1,744,807.9,744z M793.2,741.7h3.5v5.9h0.2
	c1.8-4.2,6.1-6.8,11.1-6.8c9.5,0,14,7.7,14,16.5s-4.5,16.4-14,16.4c-4.6,0-9.2-2.3-10.8-6.8H797v17.4h-3.8L793.2,741.7 M761.5,755.9
	h17l-8.3-22.1L761.5,755.9z M768,729.8h4.6l16.9,43h-4.4l-5.3-13.4h-19.6l-5.2,13.4h-4.4L768,729.8 M734.3,744.9h-6.1v27.9h-3.8
	v-27.9h-5.3v-3.2h5.3v-2.8c0-5.4,1.4-9.1,7.5-9.1c1.1,0,2,0.1,3.2,0.2v3.2c-1-0.2-1.9-0.3-2.8-0.3c-4.2,0-4.1,2.7-4.2,6v2.7h6.1
	V744.9 M692,757.3c0,6.6,3.6,13.3,10.9,13.3c7.3,0,10.9-6.6,10.9-13.3s-3.6-13.3-10.9-13.3C695.6,744,692,750.6,692,757.3z
	 M717.6,757.3c0,8.9-5.2,16.4-14.7,16.4s-14.7-7.5-14.7-16.4s5.2-16.5,14.7-16.5S717.6,748.3,717.6,757.3 M1178.3,672.6h4l10.3,26.5
	l9.6-26.5h3.8l-13.5,35.9c-2.2,5.3-3.4,6.8-8.2,6.8c-1.5-0.1-2.3-0.1-2.9-0.3v-3.2c0.9,0.2,1.7,0.3,2.6,0.3c3.4,0,4.2-2,5.4-4.9
	l1.3-3.6L1178.3,672.6 M1168.8,672.6h6.3v3.2h-6.3v21c0,2.5,0.4,3.9,3.1,4.1c1.1,0,2.2-0.1,3.3-0.2v3.3c-1.1,0-2.2,0.1-3.4,0.1
	c-5.1,0-6.8-1.7-6.8-7v-21.3h-5.4v-3.2h5.4v-9.4h3.8V672.6 M1151.4,703.7v-31.1h3.8v31.1H1151.4z M1151.4,666.8v-6.1h3.8v6.1H1151.4
	z M1141,681.7c-0.2-4.7-3.8-6.8-8.1-6.8c-3.4,0-7.4,1.3-7.4,5.4c0,3.4,3.9,4.6,6.5,5.2l5.1,1.1c4.3,0.7,8.9,3.2,8.9,8.6
	c0,6.7-6.7,9.3-12.5,9.3c-7.2,0-12.2-3.4-12.8-11h3.8c0.3,5.1,4.1,7.8,9.1,7.8c3.6,0,8.5-1.6,8.5-5.9c0-3.6-3.4-4.8-6.8-5.7
	l-4.9-1.1c-4.9-1.3-8.7-3-8.7-8.3c0-6.3,6.2-8.7,11.7-8.7c6.2,0,11.1,3.3,11.4,10L1141,681.7 M1103.3,672.6h3.5v7.3h0.2
	c1.9-5,6.2-8,11.8-7.7v3.8c-6.9-0.4-11.6,4.7-11.6,11.1v16.6h-3.8L1103.3,672.6 M1094.1,686c-0.2-5.7-3.7-11.1-9.9-11.1
	c-6.2,0-9.6,5.4-10.2,11.1L1094.1,686L1094.1,686z M1073.9,689.2c0,5.5,3,12.2,10.2,12.2c5.5,0,8.6-3.3,9.8-8h3.8
	c-1.6,7.1-5.7,11.2-13.6,11.2c-9.9,0-14-7.6-14-16.5c0-8.2,4.2-16.5,14-16.5c10,0,14,8.7,13.7,17.5H1073.9 M1041.3,672.6h4.2
	l9.8,27.3h0.2l9.6-27.3h3.9l-11.6,31.1h-4L1041.3,672.6 M1033.6,703.7v-31.1h3.8v31.1H1033.6z M1033.6,666.8v-6.1h3.8v6.1H1033.6z
	 M1001.2,672.6h3.8v5.4h0.2c1.4-3.7,5.5-6.3,9.9-6.3c8.7,0,11.4,4.6,11.4,12v20h-3.8v-19.4c0-5.3-1.7-9.4-7.9-9.4
	c-6,0-9.6,4.6-9.8,10.7v18.1h-3.8L1001.2,672.6 M960.9,660.7h4.1v26.6c0,10,4.7,13.8,12.6,13.8c7.9,0,12.7-3.8,12.7-13.8v-26.6h4.1
	v27.5c0,8.9-4.8,16.4-16.7,16.4c-11.9,0-16.7-7.5-16.7-16.4L960.9,660.7 M928.4,687.7c0-5.1-1.7-9.6-7.3-9.6c-4.8,0-6.9,4.2-6.9,8.9
	c0,4.5,1.7,9.3,6.9,9.3C926,696.3,928.4,692.2,928.4,687.7L928.4,687.7z M936.6,701.7c0,5.1-1.8,13.8-16.2,13.8
	c-6.1,0-13.3-2.9-13.7-10h8.5c0.8,3.2,3.4,4.3,6.4,4.3c4.8,0,6.9-3.3,6.9-7.7V698h-0.2c-1.9,3.2-5.6,4.8-9.3,4.8
	c-9.4,0-13.3-7.1-13.3-15.7c0-8.1,4.6-15.4,13.4-15.4c4.1,0,7.2,1.4,9.3,5h0.2v-4.2h8.1V701.7 M882.6,672.5h8.1v5.8h0.2
	c1.5-3.9,5.8-6.6,9.9-6.6c0.6,0,1.4,0.1,1.9,0.3v8c-0.8-0.2-2.1-0.3-3.1-0.3c-6.3,0-8.4,4.5-8.4,10v14h-8.6L882.6,672.5
	 M876.1,703.7h-8.1v-4.3h-0.2c-2.2,3.5-5.9,5.2-9.5,5.2c-9.1,0-11.4-5.1-11.4-12.9v-19.1h8.6v17.6c0,5.1,1.5,7.7,5.5,7.7
	c4.6,0,6.6-2.6,6.6-8.9v-16.3h8.6L876.1,703.7 M826.5,678.1c-5.1,0-7.3,4.8-7.3,10c0,5.2,2.2,10,7.3,10s7.3-4.8,7.3-10
	C833.7,682.9,831.5,678.1,826.5,678.1z M810.9,660.7h8.6v15.7h0.2c2.1-3.2,6-4.6,9.8-4.6c6.2,0,12.9,5,12.9,16.4
	c0,11.4-6.7,16.5-12.9,16.5c-4.6,0-8.4-1.4-10.2-4.8H819v4h-8.1L810.9,660.7 M777.3,697.3l16.2-18.3h-15v-6.5h26.3v6.5l-16.2,18.3
	h17.4v6.4h-28.7L777.3,697.3 M763.4,660.7v43h8.6v-43H763.4z M748.3,688.5c-1.5,1.3-4.5,1.3-7.1,1.8c-2.7,0.5-5,1.5-5,4.6
	c0,3.2,2.5,4,5.2,4c6.7,0,6.9-5.3,6.9-7.2V688.5z M728.5,682.1c0.5-8,7.7-10.4,14.6-10.4c6.2,0,13.7,1.4,13.7,8.9v16.2
	c0,2.8,0.3,5.7,1.1,6.9h-8.7c-0.3-1-0.5-2-0.6-3c-2.7,2.8-6.7,3.8-10.5,3.8c-5.9,0-10.6-3-10.6-9.3c0-7.1,5.3-8.7,10.6-9.5
	c5.2-0.8,10.1-0.6,10.1-4.1c0-3.7-2.5-4.2-5.6-4.2c-3.3,0-5.4,1.3-5.7,4.7H728.5 M696.7,689.4c0,5.7,4.5,8,9.5,8
	c3.3,0,8.4-1,8.4-5.4c0-4.6-6.5-5.4-12.8-7.1c-6.4-1.7-12.9-4.2-12.9-12.2c0-8.8,8.3-13,16.1-13c9,0,17.2,3.9,17.2,13.9h-9.2
	c-0.3-5.2-4-6.5-8.5-6.5c-3,0-6.5,1.3-6.5,4.9c0,3.3,2.1,3.7,12.9,6.5c3.1,0.8,12.8,2.8,12.8,12.5c0,7.9-6.2,13.8-17.9,13.8
	c-9.5,0-18.4-4.7-18.3-15.3H696.7 M1148.8,615.7c-0.8-4.3-2.7-6.6-6.8-6.6c-5.4,0-7,4.2-7.1,6.6H1148.8L1148.8,615.7z M1134.9,621.1
	c0.2,5.4,2.9,7.9,7.6,7.9c3.4,0,6.2-2.1,6.8-4h7.5c-2.4,7.4-7.5,10.5-14.6,10.5c-9.8,0-15.9-6.7-15.9-16.4c0-9.3,6.4-16.5,15.9-16.5
	c10.6,0,15.7,8.9,15.1,18.5L1134.9,621.1 M1112.5,591.6v43h8.6v-43H1112.5z M1105.4,634.6h-8.1v-4.3h-0.2c-2.2,3.5-5.9,5.2-9.5,5.2
	c-9.1,0-11.4-5.1-11.4-12.9v-19.2h8.6V621c0,5.1,1.5,7.7,5.5,7.7c4.6,0,6.6-2.6,6.6-8.9v-16.3h8.6L1105.4,634.6 M1040.7,591.6h8.6
	v16.2h0.2c2.2-3.5,5.9-5.2,9.1-5.2c9.1,0,11.4,5.1,11.4,12.9v19.2h-8.6V617c0-5.1-1.5-7.6-5.5-7.6c-4.7,0-6.6,2.6-6.6,8.9v16.3h-8.6
	V591.6 M1027,614.4c-0.5-3.5-2.8-5.4-6.3-5.4c-5.5,0-7.3,5.5-7.3,10.1c0,4.5,1.7,9.8,7.1,9.8c4,0,6.3-2.5,6.8-6.3h8.3
	c-1.1,8.3-6.8,12.8-15,12.8c-9.4,0-15.7-6.6-15.7-16c0-9.7,5.8-16.9,15.9-16.9c7.4,0,14.1,3.9,14.7,11.8H1027 M979.9,624.5
	c0,3.7,3.2,5.2,6.6,5.2c2.5,0,5.6-1,5.6-4c0-2.6-3.6-3.5-9.7-4.8c-4.9-1.1-9.9-2.8-9.9-8.3c0-8,6.9-10,13.6-10
	c6.8,0,13.1,2.3,13.7,9.9h-8.1c-0.2-3.3-2.8-4.2-5.8-4.2c-1.9,0-4.8,0.4-4.8,2.9c0,3.1,4.8,3.5,9.7,4.6c5,1.1,9.9,3,9.9,8.7
	c0,8.2-7.1,10.9-14.2,10.9c-7.2,0-14.3-2.7-14.6-11H979.9 M937.5,591.6h8.6v16.2h0.2c2.2-3.5,5.9-5.2,9.1-5.2
	c9.1,0,11.4,5.1,11.4,12.9v19.2h-8.6V617c0-5.1-1.5-7.6-5.5-7.6c-4.6,0-6.6,2.6-6.6,8.9v16.3h-8.6L937.5,591.6 M923.5,614.4
	c-0.6-3.5-2.8-5.4-6.3-5.4c-5.5,0-7.3,5.5-7.3,10.1c0,4.5,1.8,9.8,7.1,9.8c4,0,6.3-2.5,6.8-6.3h8.3c-1.1,8.3-6.8,12.8-15,12.8
	c-9.4,0-15.7-6.6-15.7-16c0-9.7,5.8-16.9,15.9-16.9c7.4,0,14.1,3.9,14.7,11.8H923.5 M880.6,629c5.8,0,7.6-5,7.6-10
	c0-5-1.8-10-7.6-10c-5.8,0-7.5,5-7.5,10C873.1,624,874.8,629,880.6,629z M880.6,602.6c9.8,0,16.2,6.5,16.2,16.5
	c0,9.9-6.3,16.4-16.2,16.4c-9.8,0-16.1-6.5-16.1-16.4C864.5,609.1,870.8,602.6,880.6,602.6 M829.7,591.6h8.6v16.2h0.2
	c2.2-3.5,5.9-5.2,9.1-5.2c9.1,0,11.4,5.1,11.4,12.9v19.2h-8.6V617c0-5.1-1.5-7.6-5.5-7.6c-4.7,0-6.6,2.6-6.6,8.9v16.3h-8.6
	L829.7,591.6 M793.7,591.6h8.6v16.2h0.2c2.2-3.5,5.9-5.2,9.1-5.2c9.1,0,11.4,5.1,11.4,12.9v19.2h-8.6V617c0-5.1-1.5-7.6-5.5-7.6
	c-4.6,0-6.6,2.6-6.6,8.9v16.3h-8.6L793.7,591.6 M779.8,614.4c-0.5-3.5-2.8-5.4-6.3-5.4c-5.5,0-7.3,5.5-7.3,10.1
	c0,4.5,1.8,9.8,7.1,9.8c4,0,6.3-2.5,6.8-6.3h8.3c-1.1,8.3-6.8,12.8-15,12.8c-9.4,0-15.7-6.6-15.7-16c0-9.7,5.8-16.9,15.9-16.9
	c7.4,0,14.1,3.9,14.7,11.8H779.8 M743.3,619.3c-1.4,1.3-4.5,1.3-7.1,1.8c-2.7,0.5-5.1,1.4-5.1,4.6c0,3.2,2.5,4,5.2,4
	c6.7,0,6.9-5.3,6.9-7.2L743.3,619.3L743.3,619.3z M723.6,613c0.5-8,7.6-10.4,14.6-10.4c6.2,0,13.7,1.4,13.7,8.9v16.2
	c0,2.8,0.3,5.7,1.1,6.9h-8.7c-0.3-1-0.6-2-0.6-3c-2.7,2.8-6.7,3.8-10.5,3.8c-5.9,0-10.6-3-10.6-9.3c0-7.1,5.3-8.7,10.6-9.5
	c5.3-0.8,10.1-0.6,10.1-4.1c0-3.7-2.5-4.2-5.5-4.2c-3.3,0-5.4,1.3-5.7,4.7H723.6 M690.3,591.6h30.2v8h-20.8v9.9h18v7.3h-18v17.8
	h-9.5V591.6"/>
<path fill="#FFFFFF" d="M279.3,612.7H290v46.1h0.3c4-12.1,12.4-14.7,25.8-14.7h15.4c20.2,0,26.6,12.4,26.6,26.4v52.7h-10.8v-49.5
	c0-11.4-2.6-18.9-23.5-18.9H321c-25.2,0-30.9,5.8-30.9,24.1v44.3h-10.8L279.3,612.7 M223,654.9h-17v-10.7h17v-5.7
	c0-18.5,9.4-25.8,23.7-25.8h24.6v10.7h-24c-9.8,0-13.6,5.5-13.6,12.4v8.4h37.6v10.7h-37.6v68.4H223V654.9"/>
<path fill="#FFFFFF" d="M509.1,544c-65.4,0-120.2,45.6-134.5,106.7c4.9-4.2,14.1-6.5,30.6-6.5h18.2c26.7,0,30.4,8.5,30.4,19.5v4.1
	h-11v-0.8c0-11.9-7.1-12.2-20.1-12.2H402c-16.9,0-20.6,1.8-20.6,10.7v2.9c0,6.4,1.9,10.1,14.3,10.1h31.2c17.7,0,29.8,2,29.8,23.1
	v0.3c0,21.8-18.2,22.6-32.6,22.6h-21.7c-10.1,0-19.8,0-26.2-4.5c16.5,57.9,69.7,100.3,132.9,100.3c76.3,0,138.2-61.9,138.2-138.2
	C647.2,605.9,585.3,544,509.1,544L509.1,544z M379.5,700.2c0,9.6,4.6,13.6,16.6,13.6h25.3c17.7,0,23.4-0.8,23.4-12.4v-0.6
	c0-7.5-1.9-11.6-16.1-11.6h-36.4c-12.1,0-18.7-3.2-21.4-10.7c0,1.2-0.2,2.4-0.2,3.6c0,4.8,0.3,9.6,0.7,14.2h7.9L379.5,700.2"/>
</svg>
