<?xml version="1.0" encoding="utf-8"?>
<!-- Generator: Adobe Illustrator 18.1.0, SVG Export Plug-In . SVG Version: 6.00 Build 0)  -->
<svg version="1.1" id="Layer_1" xmlns="http://www.w3.org/2000/svg" xmlns:xlink="http://www.w3.org/1999/xlink" x="0px" y="0px"
	 viewBox="0 0 500 346.2" enable-background="new 0 0 500 346.2" xml:space="preserve">
<path fill="#FFFFFF" d="M136.9,101.4c9.6-4.9,20.4-7.9,31.7-8.5V62.1c-17,0.7-32.9,5.2-47.1,12.6L136.9,101.4z M92.8,177.7H62
	c0.7,17,5.2,32.9,12.6,47.1l26.6-15.4C96.4,199.8,93.5,189.1,92.8,177.7z M62,168.7h30.8c0.6-11.4,3.6-22.1,8.5-31.8l-26.6-15.4
	C67.2,135.7,62.7,151.7,62,168.7z M105.8,217.3l-26.6,15.4c8.8,13.9,20.6,25.7,34.5,34.5l15.4-26.6
	C119.8,234.4,111.9,226.5,105.8,217.3z M177.6,62.1v30.8c11.4,0.6,22.1,3.6,31.8,8.5l15.4-26.6C210.6,67.3,194.6,62.8,177.6,62.1z
	 M168.6,253.5c-11.4-0.6-22.1-3.6-31.7-8.5l-15.4,26.6c14.2,7.5,30.2,12,47.1,12.6L168.6,253.5L168.6,253.5z M105.8,129.1
	c6.1-9.2,14-17.2,23.2-23.2l-15.3-26.6C99.8,88.1,88,99.8,79.2,113.7L105.8,129.1z M209.4,245c-9.6,4.9-20.4,7.9-31.7,8.5v30.8
	c17-0.7,32.9-5.2,47.1-12.6L209.4,245z M115.9,65.1c17.1-9.1,36.5-14.2,57.2-14.2s40.1,5.2,57.2,14.2l5.5-9.5
	c-17.1-9.2-36.5-14.7-57-15.6V0h-11.3v40c-20.6,0.9-39.9,6.4-57,15.6L115.9,65.1z M55.5,235.9l9.5-5.5
	c-9.1-17.1-14.2-36.5-14.2-57.2S56,133.1,65,116l-9.5-5.5c-9.2,17.1-14.7,36.5-15.6,57H0v11.3h39.9
	C40.8,199.4,46.4,218.7,55.5,235.9z M230.3,281.3c-17.1,9.1-36.5,14.2-57.2,14.2s-40.1-5.2-57.2-14.2l-5.5,9.5
	c17.1,9.2,36.5,14.7,57,15.6v39.9h11.3v-39.9c20.6-0.9,39.9-6.4,57-15.6L230.3,281.3z M149.1,152.8c0.3,0.1,0.1,0,0.3,0.2
	C149.3,152.9,149.2,152.8,149.1,152.8L149.1,152.8z M235.6,181.6c-0.3-0.3-0.5-0.7-0.8-1.1c-0.1-1.2-0.2-2.4-0.2-3.6
	c-0.1-2.4-2.7-5.4-2-7.3c0.2,0,0.3,0,0.5,0.1c0.3,0.4,0.6,0.8,1,1.2c0,0,0.1,0,0.2,0c-0.2-1.3-0.4-2.6-0.7-3.9c0.4,0,0.7,0,1-0.1
	c0.6,1.7,1,3.9,1,5.5c-0.3,0.1-0.6,0.1-0.8,0.2c0.3,1.1,0.7,2.2,1.1,3.3c0.1-0.1,0.2-0.2,0.3-0.2c0-0.1,0-0.2-0.1-0.3
	c0.6-3.7-0.2-8.8-0.9-13.1c-1.2,0.4-1.6-0.8-2.1-2.2c-0.7,0.4-0.6,0.6-0.8,1.2c-0.1,0-0.3-0.1-0.4-0.1c-0.6-1.6-1.2-3.1-1.7-4.7
	c-0.1,0-0.2-0.1-0.4-0.1c-0.2,0.2-0.4,0.4-0.6,0.6c-0.2-0.1-0.3-0.3-0.5-0.4c-0.3-0.9-0.6-1.7-0.9-2.6c-0.9-1.4-2-2-2.8-3.8
	c-0.6,0.6-1.3,1.2-1.9,1.8c0.1,0.6,0.2,1.3,0.2,1.9c-0.4,2.2-1.9,5.3-2.1,7.3c0.3,0.9,0.6,1.7,0.9,2.6c0.9,2.8,0.2,5.2-0.4,7.1
	c-0.2,0-0.3,0.1-0.5,0.1c-0.2-0.1-0.4-0.3-0.6-0.4c-1.2-3.3-3.4-5.6-5-8.2c-1-2-1.9-4.1-2.9-6.2c-0.3,0.4-0.5,0.8-0.8,1.2
	c-1.2,0.1-1.3-0.2-2.1-0.6c-0.5-1.8-3-2.8-4.3-3.4c-4.7,1.6-6.1,3.5-10.2,1.2c-3.6,2.4-5.7,0.4-8.7-1.3c-0.5,0.3-1,0.7-1.5,1
	c0,0.2,0.1,0.4,0.1,0.7c1.5,1.1,2.9,2.3,4.4,3.4c0.7,0,0.6-0.4,1.3-0.3c0.2,1,0.4,1.2,0.9,1.7c0,0,0.1,0,0.2,0
	c0.6-0.2,1.2-0.5,1.8-0.7c0.8-0.7,1-1.5,1.2-2.5c0.3,0,0.6,0,0.9,0c1.1,1.8,4.8,1.4,4.9,3.3c0,5.8-4.5,10.9-8.7,14.5
	c-0.7,0.6-3.1,3.8-4.4,3.1c-0.9-1.7-1.8-3.3-2.7-5c-1.5-1.5-4.5-2.4-5.8-4c-0.2-0.6-0.4-1.2-0.6-1.8c-2.5-1.8-5-3.7-7.5-5.5
	c-0.4,0.3-0.7,0.5-1.1,0.8c-0.5-0.5-0.8-0.9-1.6-1c0,0,0,0.1,0,0.2c2.4,2.5,5.1,5.1,7.7,7.2c0.6,1.1,1.2,2.2,1.8,3.3
	c0.7,0.4,1.5,0.8,2.2,1.3c0.5,0.8,1.1,1.6,1.6,2.5c1.9,0.8,3.7,1.6,5.6,2.4c1.2,1.1,0.8,1.6,2.3,2.5c2.2-1.4,4.4-2.8,6.6-4.2
	c0.2,0.1,0.3,0.2,0.4,0.3c2,9.7-4.8,14.5-6.8,21.6c-1.7,5.9,4.3,7.5,3.9,12.9c-0.1,2-3.1,4.1-3.9,5.9c0.5,1.4,1.2,1.9,1.3,3.5
	c-3.7,3.3,0.6,6.9-7.9,9.6c-2.4-0.7-14-7.9-15.1-9.8c-0.8-1.5-0.3-3.5-0.8-4.7c-0.3-0.8-1.7-2.3-2.4-3.2c-2.1-2.5-5.5-3.3-7.7-5.5
	c-2.2-2.2-0.3-5.1-3.7-6.5c-0.9,0.3-1.7,0.6-2.6,0.9c-4.3-4-4.4,0.2-7.7,1.5c-0.8,0.1-1.7,0.1-2.6,0.2c-0.7,0.5-1.4,1-2.1,1.5
	c-4.3-1.5-9.7-5.5-12-10c-0.3-1.8-0.7-3.6-1-5.4c-0.6-1.3-1.2-2.7-1.7-4c0.3-2.6,0.6-5.2,0.9-7.7c0.7-1,1.3-1.9,2-2.9
	c0-1.4,0-2.8,0-4.2c0.3-1.2,1.7-3.4,2.3-4.5c4-0.5,4.4-2.6,7.1-4.2c1.8-1,4.1-1.1,5.8-2.5c0.4,0.2,0.8,0.4,1.2,0.6
	c0.1,1.2,0.1,2.1,0.2,3.4c1.7,0.5,2.5-0.2,4.6,0c0.5,0.4,1,0.7,1.5,1.1c1,0.4,3.4,0.3,4.3,0.3c0.3-0.5,0.5-0.9,0.7-1.4
	c-0.4-0.5-0.4-0.6-0.5-1.3c0.4-0.4,0.7-0.9,1.1-1.3c1.8-0.8,5.8,0,8.3-0.2c1.4-0.2,1.5-1.2,2.4-1.6c1.8-0.7,3.1,0.5,3.8-1.7
	c0.6-2,0.4-4.5-0.7-6.3c-1.6,0.4-1.6,1.2-2.6,1.6c-0.9,0-1.9-0.1-2.8-0.1c-0.3,0.4-0.5,0.8-0.8,1.2c-3.2-0.1-3.7-2-5.5-4.2
	c-1.8,0.4-2.1,1-3.1,1.7c0.3,1.3,0.8,1.5,1.5,2.1c-0.4,0.7-0.5,1-0.6,2.1c-0.2,0-0.4,0.1-0.7,0.2c-0.1,0-0.2-0.1-0.4-0.1
	c-1.2-2.3-2.6-2.5-3.5-5c-2.3-0.7-4.3-1.8-6.5-2.4c-0.3,0.2-0.5,0.3-0.8,0.5c-0.1,0.2-0.2,0.4-0.2,0.6c1.1,2.4,3.7,2.7,6,3.4
	c0,0.1-0.1,0.3-0.1,0.4c-0.7,0.3-0.6,0.3-0.8,0.9c0.5,0.8,0.5,0.8,0.1,1.5c-0.1,0-0.3-0.1-0.4-0.1c-0.5-1.2-5.7-3.7-7.1-4.6
	c-1.2,0.6-1.5,1.8-2.5,2.3c-0.8,0.2-1.7,0.4-2.5,0.5c-0.7,2-1.9,3-2.6,4.8c-0.7,1.7-0.9,6.6-4.4,6.4c-0.7,0-0.7-0.6-2-0.4
	c-0.7-2.9-0.1-4.3-0.2-7.1c1.5-1,4.1-1.2,5.4-2.4c0.1-1.1,0.1-2.1,0.2-3.2c-0.7-0.8-1.2-1-2.1-1.5c0.1-0.2,0.2-0.4,0.2-0.6
	c3.5-0.9,7.1-6.8,9.9-9.2c-0.2-1.5-0.3-2.1,0.2-3.2c0.2,0,0.3-0.1,0.5-0.1c0.1,0.1,0.2,0.2,0.2,0.3c-0.4,1.2-0.7,1.5,0.2,2.4
	c3.2-0.8,4.3-2.1,7.3-2.7c0.4-0.8,0.8-3,1.5-3.6c0.6-0.1,1.2-0.3,1.8-0.4c-0.3-0.9-0.5-1.3-0.2-1.9c1.1-0.8,2.6-0.9,3.2-1.9
	c-0.2-0.1-0.3-0.3-0.4-0.4c-1.8,0.6-3.2,2-4.9,1.6c-0.1-0.5-0.2-0.9-0.3-1.3c0.5-1.2,1.7-1.8,2.1-3.1c-0.1-0.2-0.3-0.3-0.4-0.4
	c-0.1,0-0.1,0-0.2,0c-1.8,0.7-4.3,3.8-4.8,5.4c0.4,0.8,0.6,0.6,1,1.5c-2,1.2-1.2,3.6-3.7,4.8c-0.1-0.2-0.2-0.3-0.3-0.5
	c-0.5-0.8-0.9-1.5-1.4-2.3c-0.1,0-0.1,0-0.2,0c-1.4,0.6-1.4,1.3-2.9,1.9c-0.1-0.9-0.2-1.8-0.3-2.7c6.2-5.4,10.7-13.9,22.6-12.6
	c0.1,0.3,0.1,0.6,0.2,0.8c-1.3,0.4-2.6,0.7-4,1.1c0,0.2,0.1,0.4,0.2,0.6c0.7,0.5,1.1,0.8,2.2,0.7c1-1.4,2.7-2.1,3.8-3.5
	c-0.3-0.6-0.3-0.7-0.1-1.2c0.5,0.2,1,0.5,1.6,0.7c2.7-2.4,6.4-3.1,9.5-5.1c-0.5-0.5-0.8-0.5-1.2-1.3c0.1-0.2,0.3-0.4,0.4-0.6
	c0.8,0,1.7,0.1,2.5,0.2c0.8-0.6,1.2-0.8,1.4-1.9c0-0.6,0-1.4,0.2-1.9c-1.7-0.1-3.3-0.3-5-0.3c-35.3,0-63.9,28.6-63.9,63.9
	s28.6,63.9,63.9,63.9c32.1,0,58.6-23.7,63.1-54.5l-0.3,0.3L235.6,181.6z M153.1,155.9c1.1-0.3,1.4-0.4,2,0.2c0,0.2,0,0.3,0,0.5
	c-0.1,0.1-0.2,0.1-0.3,0.2c-0.9,0.1-1.2-0.1-1.7-0.5C153,156.1,153,156,153.1,155.9z M149.8,154.1c0.1,0.1,0.1,0.3,0.2,0.4
	c-0.1,0.4-0.2,0.8-0.3,1.3c-0.1,0-0.2,0-0.3,0.1c-0.1,0-0.1-0.1-0.2-0.1c0-0.5,0-1,0-1.5C149.5,154.2,149.6,154.1,149.8,154.1z
	 M136.9,137.8c0.6-0.5,1.2-1,1.8-1.4c0.2,0,0.5-0.1,0.7-0.1c0,0.2,0,0.4,0,0.6c-0.8,0.5-1.5,1-2.3,1.5c-0.1-0.1-0.1-0.2-0.2-0.2
	C136.9,138,136.9,137.9,136.9,137.8z M198.7,208.2c-0.4-0.1-0.7-0.2-1.1-0.3c-0.2-0.6-0.7-5.6-0.4-6.1c0.7-1.7,2.6-2.1,3-4.7
	c0.1,0,0.3-0.1,0.4-0.1c0.2,0.1,0.3,0.1,0.5,0.2C201.9,200.5,201,206.4,198.7,208.2z M227.7,163.7c-0.2,0-0.3,0.1-0.4,0.1
	c0-0.1,0-0.2-0.1-0.3c-0.1-0.2-0.2-0.5-0.3-0.7c0.1-0.2,0.1-0.3,0.2-0.5c0.2,0.1,0.4,0.2,0.7,0.3c0,0.3,0.1,0.7,0.1,1
	C227.8,163.7,227.8,163.7,227.7,163.7z M180.8,143.1c0.6,0.6,1.2,1.2,1.8,1.9c2.2-0.2,3.6,0.2,5.3-1.2c0-0.2-0.1-0.3-0.1-0.5
	c-1.1-0.8-1.8-1.8-3-2.5c0-0.2-0.1-0.3-0.1-0.5c0.3-0.3,0.6-0.6,0.8-0.9c-0.3-0.3-0.2-0.2-0.6-0.4c-1.8-0.3-4.3-0.6-5.1-2.4
	c0.3-0.1,0.7-0.1,1-0.2c0.5,0,1,0,1.4,0c0.3-0.5,0.7-1.1,1-1.6c0-0.1,0-0.1-0.1-0.2c-1.3-1-2-1.8-4.2-1.5c-1.3,1.5-2.6,2.3-3.7,3.9
	c0.3,1.3,0.5,1.5,1.1,2c1.7,0.8,3.4,1.6,5.1,2.4c0,0.2,0,0.5,0,0.7C181,142.5,181,142.4,180.8,143.1z M159.1,149.2
	c0.1,0,0.1,0.1,0.2,0.1c2.3-0.7,3.4-2.9,5.4-4c2.7-1.4,6.8,0.7,8.4-2.5c0-0.2-0.1-0.3-0.1-0.5c-1.8-0.5-3.6-1.1-5.4-1.6
	c-0.2-0.6,0.2-1.2,0-2.4c-0.2,0.1-0.4,0.1-0.7,0.1c-0.8,0.6-1.6,1.3-2.4,1.9c0,0,0,0.1,0,0.2c0.3,0.4,0.5,0.8,0.8,1.2
	c-0.1,0.1-0.2,0.2-0.3,0.2c-0.4,0.1-0.8,0.3-1.1,0.4c-0.6-1-1.8-2-2.9-1.3c-1.4,0.9-2.2,3.9-2.3,5.7c0.7,0.4,1,0.6,0.8,1.2
	c-0.2,0.4-0.3,0.5-0.5,0.8C159.1,149,159.1,149.1,159.1,149.2z M180.3,115c-0.4-0.4-0.5-0.5-1-0.7c0.1,0.3,0.1,0.6,0.2,0.8
	c0.2,0.1,0.4,0.2,0.6,0.2C180.1,115.3,180.2,115.2,180.3,115z M139.7,164.1c0.2,0,0.4-0.1,0.7-0.1c-0.1-0.2-0.1-0.4-0.2-0.7
	c-0.2,0.1-0.5,0.1-0.7,0.1C139.6,163.7,139.6,163.9,139.7,164.1z M162.1,162.7c0.1,0.2,0.2,0.3,0.3,0.5c0.1,0,0.2,0.1,0.4,0.1
	c0.1-0.1,0.3-0.2,0.4-0.3c0.2-0.4,0.3-0.9,0.4-1.3c0-0.1-0.1-0.2-0.1-0.3c-0.2,0-0.5,0-0.7,0C162.6,161.8,162.3,162.2,162.1,162.7z
	 M157.4,126.9c-0.4,0-0.7,0-1,0c-0.1,0.6-0.1,0.4,0,1c0.1,0.1,0.3,0.2,0.4,0.3c0.4-0.1,0.8-0.3,1.1-0.4c-0.1-0.2-0.1-0.4-0.1-0.7
	C157.6,127,157.5,126.9,157.4,126.9z M306,111V78.3h-18.8L265.8,113v9.1h26.7v11.4H306v-11.4h6.6v-11H306z M292.7,111h-13l12.9-21.2
	h0.1V111z M342.5,76.1c-16.4,0-23.4,15.4-23.4,29.7c0,14.3,6.9,29.7,23.4,29.7c16.5,0,23.4-15.4,23.4-29.7S358.9,76.1,342.5,76.1z
	 M342.5,123c-7.4,0-9.1-11.8-9.1-17.2s1.8-17,9.1-17c7.4,0,9.1,11.7,9.1,17C351.6,111.1,349.9,123,342.5,123z M396.5,76.1
	c-16.4,0-23.4,15.4-23.4,29.7c0,14.3,6.9,29.7,23.4,29.7c16.5,0,23.4-15.4,23.4-29.7C419.8,91.5,412.8,76.1,396.5,76.1z M396.5,123
	c-7.4,0-9.1-11.8-9.1-17.2s1.8-17,9.1-17c7.4,0,9.1,11.7,9.1,17C405.6,111.1,403.8,123,396.5,123z M450.4,76.1
	c-16.4,0-23.4,15.4-23.4,29.7c0,14.3,6.9,29.7,23.4,29.7c16.4,0,23.4-15.4,23.4-29.7C473.7,91.5,466.7,76.1,450.4,76.1z M450.4,123
	c-7.4,0-9.1-11.8-9.1-17.2s1.8-17,9.1-17c7.3,0,9.1,11.7,9.1,17C459.5,111.1,457.7,123,450.4,123z M275.5,145.9h14.1l11.2,29.5
	l11.8-29.5h14.3l8.3,55.1h-14.3l-4.1-31.7h-0.1L303.5,201h-5.7l-12.7-31.7H285l-4.6,31.7h-14.3L275.5,145.9z M345.1,145.9h14.3V201
	h-14.3V145.9z M386.5,188.9h17.2V201h-31.5v-55.1h14.3V188.9z M427.2,158.1v9.2h16.2v12.1h-16.2v9.5h17V201h-31.3v-55.1h31.3v12.2
	H427.2z M299.7,227.8c-2.6-2.2-6-3.7-9.5-3.7c-2.6,0-6.1,1.5-6.1,4.6c0,3.2,3.9,4.5,6.4,5.3l3.7,1.1c7.7,2.3,13.6,6.1,13.6,15.1
	c0,5.5-1.3,11.1-5.7,14.8c-4.3,3.7-10.1,5.2-15.6,5.2c-6.9,0-13.7-2.3-19.4-6.3l6.1-11.5c3.6,3.1,7.8,5.7,12.7,5.7
	c3.4,0,6.9-1.7,6.9-5.6c0-4-5.6-5.4-8.7-6.3c-9-2.6-14.9-4.9-14.9-15.6c0-11.2,8-18.5,19-18.5c5.6,0,12.4,1.8,17.2,4.5L299.7,227.8z
	 M339.3,268.7H325v-43h-11.8v-12.1h38v12.1h-11.9V268.7z M387.1,213.6h-15.6l-21.2,55.1h15.2l3.8-9.6h19.7l3.6,9.6h15.3L387.1,213.6
	z M373.2,248.1l5.9-17.5h0.2l5.8,17.5H373.2z M444,246.1c7.8-1.4,12.1-8,12.1-15.6c0-11.8-8.3-17-19.1-17h-21.4v55.1h14.3v-21.2h0.1
	l13.5,21.2h17.8L444,246.1z M431.2,238.3h-1.4v-13.7h1.4c4.7,0,9.9,0.9,9.9,6.9C441.1,237.4,435.9,238.3,431.2,238.3z M483,225.7
	v9.2h16.1v12.1H483v9.6h17v12.1h-31.3v-55.1H500v12.1L483,225.7L483,225.7z"/>
</svg>
