<?xml version="1.0" encoding="utf-8"?>
<!-- Generator: Adobe Illustrator 18.1.0, SVG Export Plug-In . SVG Version: 6.00 Build 0)  -->
<svg version="1.1"
	 sodipodi:docname="vimeo.svg" sodipodi:version="0.32" inkscape:output_extension="org.inkscape.output.svg.inkscape" inkscape:version="0.47 r22583" xmlns:dc="http://purl.org/dc/elements/1.1/" xmlns:cc="http://creativecommons.org/ns#" xmlns:rdf="http://www.w3.org/1999/02/22-rdf-syntax-ns#" xmlns:svg="http://www.w3.org/2000/svg" xmlns:sodipodi="http://sodipodi.sourceforge.net/DTD/sodipodi-0.dtd" xmlns:inkscape="http://www.inkscape.org/namespaces/inkscape"
	 xmlns="http://www.w3.org/2000/svg" xmlns:xlink="http://www.w3.org/1999/xlink" x="0px" y="0px" viewBox="-177 525 256 256"
	 enable-background="new -177 525 256 256" xml:space="preserve">
<path fill="#FFFFFF" d="M-177,525v256H79V525H-177z M22.1,625.2c-6.1,36.4-59.6,93.6-77.5,91.5c-20.5,4.5-30.9-60.2-46.3-90.5
	l-14.1,5.5c-5.8,0.9-5-2.8-4.3-6.5c15.5-13.9,29.4-38.2,45.5-33.2c26.7,6.9,15.2,58,30.3,81.8c20.8-11.7,34.3-36.4,28.7-49.1
	c-1.3-3.6,0.3-12.5-16.8-4.7c-4.4,2-4.2-5.8-3.5-6.9C-19.9,595.8-10.8,588.6,0,589C9.1,590.5,25.1,600.7,22.1,625.2z"/>
</svg>
